<?xml version="1.0" encoding="UTF-8" standalone="no"?>
<!-- Created with Inkscape (http://www.inkscape.org/) -->

<svg
   xmlns:dc="http://purl.org/dc/elements/1.1/"
   xmlns:cc="http://creativecommons.org/ns#"
   xmlns:rdf="http://www.w3.org/1999/02/22-rdf-syntax-ns#"
   xmlns:svg="http://www.w3.org/2000/svg"
   xmlns="http://www.w3.org/2000/svg"
   xmlns:sodipodi="http://sodipodi.sourceforge.net/DTD/sodipodi-0.dtd"
   xmlns:inkscape="http://www.inkscape.org/namespaces/inkscape"
   width="210mm"
   height="297mm"
   viewBox="0 0 210 297"
   version="1.1"
   id="svg8"
   inkscape:version="0.92.3 (2405546, 2018-03-11)"
   sodipodi:docname="guide_logo.svg">
  <defs
     id="defs2" />
  <sodipodi:namedview
     id="base"
     pagecolor="#ffffff"
     bordercolor="#666666"
     borderopacity="1.0"
     inkscape:pageopacity="0.0"
     inkscape:pageshadow="2"
     inkscape:zoom="0.65930233"
     inkscape:cx="628.38972"
     inkscape:cy="158.96445"
     inkscape:document-units="mm"
     inkscape:current-layer="layer1"
     showgrid="false"
     inkscape:window-width="1366"
     inkscape:window-height="675"
     inkscape:window-x="0"
     inkscape:window-y="0"
     inkscape:window-maximized="1" />
  <metadata
     id="metadata5">
    <rdf:RDF>
      <cc:Work
         rdf:about="">
        <dc:format>image/svg+xml</dc:format>
        <dc:type
           rdf:resource="http://purl.org/dc/dcmitype/StillImage" />
        <dc:title />
      </cc:Work>
    </rdf:RDF>
  </metadata>
  <g
     inkscape:label="Calque 1"
     inkscape:groupmode="layer"
     id="layer1">
    <text
       xml:space="preserve"
       style="font-style:normal;font-weight:normal;font-size:18.58597755px;line-height:1.25;font-family:sans-serif;letter-spacing:0px;word-spacing:2.247787px;fill:#000000;fill-opacity:1;stroke:none;stroke-width:0.26458335"
       x="8.6204538"
       y="213.30405"
       id="text817"
       transform="scale(0.82322393,1.2147363)"
       inkscape:export-xdpi="47"
       inkscape:export-ydpi="47"><tspan
         sodipodi:role="line"
         id="tspan815"
         x="8.6204538"
         y="213.30405"
         style="font-style:normal;font-variant:normal;font-weight:normal;font-stretch:normal;font-size:8.46666622px;font-family:Lato;-inkscape-font-specification:'Lato, Normal';font-variant-ligatures:normal;font-variant-caps:normal;font-variant-numeric:normal;font-feature-settings:normal;text-align:start;word-spacing:2.247787px;writing-mode:lr-tb;text-anchor:start;stroke-width:0.26458335"><tspan
   style="font-style:normal;font-variant:normal;font-weight:300;font-stretch:normal;font-size:8.46666622px;font-family:Lato;-inkscape-font-specification:'Lato Light'"
   id="tspan833">M Y</tspan>   <tspan
   style="font-style:normal;font-variant:normal;font-weight:600;font-stretch:normal;font-size:8.46666622px;font-family:Lato;-inkscape-font-specification:'Lato Semi-Bold'"
   id="tspan831">B E R M U D E S</tspan></tspan></text>
    <flowRoot
       xml:space="preserve"
       id="flowRoot823"
       style="fill:black;fill-opacity:1;stroke:none;font-family:sans-serif;font-style:normal;font-weight:normal;font-size:40px;line-height:1.25;letter-spacing:0px;word-spacing:0px"><flowRegion
         id="flowRegion825"><rect
           id="rect827"
           width="45.714287"
           height="217.14285"
           x="480"
           y="565.37683" /></flowRegion><flowPara
         id="flowPara829" /></flowRoot>    <flowRoot
       xml:space="preserve"
       id="flowRoot835"
       style="fill:black;fill-opacity:1;stroke:none;font-family:sans-serif;font-style:normal;font-weight:normal;font-size:40px;line-height:1.25;letter-spacing:0px;word-spacing:0px"><flowRegion
         id="flowRegion837"><rect
           id="rect839"
           width="391.42856"
           height="105.71429"
           x="1151.4286"
           y="-197.48032" /></flowRegion><flowPara
         id="flowPara841" /></flowRoot>    <text
       xml:space="preserve"
       style="font-style:normal;font-weight:normal;font-size:8.0414114px;line-height:1.25;font-family:sans-serif;text-align:center;letter-spacing:0px;word-spacing:0px;text-anchor:middle;fill:#000000;fill-opacity:1;stroke:none;stroke-width:0.26458332"
       x="111.51645"
       y="12.838897"
       id="text864"
       transform="scale(0.94977304,1.0528831)"><tspan
         sodipodi:role="line"
         id="tspan862"
         x="111.51645"
         y="12.838897"
         style="font-size:8.0414114px;text-align:center;text-anchor:middle;stroke-width:0.26458332">MY BERMUDES - Guide logo</tspan></text>
    <flowRoot
       xml:space="preserve"
       id="flowRoot866"
       style="fill:black;fill-opacity:1;stroke:none;font-family:sans-serif;font-style:normal;font-weight:normal;font-size:40px;line-height:1.25;letter-spacing:0px;word-spacing:0px;text-anchor:middle;text-align:center;"><flowRegion
         id="flowRegion868"
         style="text-anchor:middle;text-align:center;"><rect
           id="rect870"
           width="128.57143"
           height="194.28572"
           x="920"
           y="156.8054"
           style="text-anchor:middle;text-align:center;" /></flowRegion><flowPara
         id="flowPara872" /></flowRoot>    <rect
       style="opacity:0.98999999;fill:#171717;fill-opacity:1;stroke:#ff0001;stroke-width:5.29166651;stroke-linecap:round;stroke-linejoin:miter;stroke-miterlimit:4;stroke-dasharray:none;stroke-opacity:0;paint-order:normal"
       id="rect874"
       width="28.090399"
       height="26.269344"
       x="3.0238099"
       y="79.210144" />
    <rect
       style="opacity:0.98999999;fill:#f9f9f9;fill-opacity:1;stroke:#ff0001;stroke-width:5.29166698;stroke-linecap:round;stroke-linejoin:miter;stroke-miterlimit:4;stroke-dasharray:none;stroke-opacity:0;paint-order:normal"
       id="rect876"
       width="103.95148"
       height="78.616379"
       x="1.6878952"
       y="138.63382"
       transform="matrix(0.99999912,0.00132427,-0.00101571,0.99999948,0,0)" />
    <rect
       y="79.210144"
       x="42.747818"
       height="26.269344"
       width="28.090399"
       id="rect878"
       style="opacity:0.98999999;fill:#f9f9f9;fill-opacity:1;stroke:#ff0001;stroke-width:5.29166651;stroke-linecap:round;stroke-linejoin:miter;stroke-miterlimit:4;stroke-dasharray:none;stroke-opacity:0;paint-order:normal" />
    <rect
       style="opacity:1;fill:#ffffff;fill-opacity:1;stroke:#000000;stroke-width:0.26458332;stroke-linecap:round;stroke-linejoin:miter;stroke-miterlimit:4;stroke-dasharray:none;stroke-opacity:1;paint-order:normal"
       id="rect880"
       width="28.090399"
       height="26.269344"
       x="82.354248"
       y="79.210144" />
    <text
       inkscape:export-ydpi="47"
       inkscape:export-xdpi="47"
       transform="scale(0.82322393,1.2147363)"
       id="text888"
       y="51.096821"
       x="218.21848"
       style="font-style:normal;font-weight:normal;font-size:18.58597755px;line-height:1.25;font-family:sans-serif;letter-spacing:0px;word-spacing:2.247787px;fill:#000000;fill-opacity:1;stroke:none;stroke-width:0.26458335"
       xml:space="preserve"><tspan
         style="font-style:normal;font-variant:normal;font-weight:600;font-stretch:normal;font-size:25.39999962px;font-family:Lato;-inkscape-font-specification:'Lato Semi-Bold';font-variant-ligatures:normal;font-variant-caps:normal;font-variant-numeric:normal;font-feature-settings:normal;text-align:start;word-spacing:2.247787px;writing-mode:lr-tb;text-anchor:start;stroke-width:0.26458335"
         y="51.096821"
         x="218.21848"
         id="tspan886"
         sodipodi:role="line">Aa</tspan></text>
    <text
       transform="scale(0.94977305,1.0528831)"
       id="text896"
       y="52.29211"
       x="144.34848"
       style="font-style:normal;font-weight:normal;font-size:8.0414114px;line-height:1.25;font-family:sans-serif;text-align:center;letter-spacing:0px;word-spacing:0px;text-anchor:middle;fill:#000000;fill-opacity:1;stroke:none;stroke-width:0.26458332"
       xml:space="preserve"><tspan
         style="font-style:normal;font-variant:normal;font-weight:bold;font-stretch:normal;font-size:5.64444447px;font-family:sans-serif;-inkscape-font-specification:'sans-serif Bold';text-align:center;text-anchor:middle;stroke-width:0.26458332"
         y="52.29211"
         x="144.34848"
         id="tspan894"
         sodipodi:role="line">Typographie</tspan></text>
    <text
       xml:space="preserve"
       style="font-style:normal;font-weight:normal;font-size:8.0414114px;line-height:1.25;font-family:sans-serif;text-align:center;letter-spacing:0px;word-spacing:0px;text-anchor:middle;fill:#000000;fill-opacity:1;stroke:none;stroke-width:0.26458332"
       x="153.85983"
       y="58.753967"
       id="text900"
       transform="scale(0.94977305,1.0528831)"><tspan
         sodipodi:role="line"
         id="tspan898"
         x="153.85983"
         y="58.753967"
         style="font-style:normal;font-variant:normal;font-weight:normal;font-stretch:normal;font-size:4.93888903px;font-family:sans-serif;-inkscape-font-specification:sans-serif;text-align:center;text-anchor:middle;stroke-width:0.26458332">Raleway regular / light</tspan></text>
    <rect
       transform="matrix(0.99999912,0.00132427,-0.00101571,0.99999948,0,0)"
       y="138.63382"
       x="105.63935"
       height="78.616379"
       width="103.95148"
       id="rect902"
       style="opacity:0.98999999;fill:#171717;fill-opacity:1;stroke:#ff0001;stroke-width:5.29166698;stroke-linecap:round;stroke-linejoin:miter;stroke-miterlimit:4;stroke-dasharray:none;stroke-opacity:0;paint-order:normal" />
    <text
       xml:space="preserve"
       style="font-style:normal;font-weight:normal;font-size:18.58597755px;line-height:1.25;font-family:sans-serif;letter-spacing:0px;word-spacing:2.247787px;fill:#000000;fill-opacity:1;stroke:none;stroke-width:0.26458332"
       x="9.3549662"
       y="148.03473"
       id="text817-1"
       transform="scale(0.82322393,1.2147363)"
       inkscape:export-xdpi="47"
       inkscape:export-ydpi="47"><tspan
         sodipodi:role="line"
         id="tspan815-0"
         x="9.3549662"
         y="148.03473"
         style="font-style:normal;font-variant:normal;font-weight:normal;font-stretch:normal;font-size:8.46666622px;font-family:Lato;-inkscape-font-specification:'Lato, Normal';font-variant-ligatures:normal;font-variant-caps:normal;font-variant-numeric:normal;font-feature-settings:normal;text-align:start;word-spacing:2.247787px;writing-mode:lr-tb;text-anchor:start;stroke-width:0.26458332"><tspan
   style="font-style:normal;font-variant:normal;font-weight:300;font-stretch:normal;font-size:8.46666622px;font-family:Lato;-inkscape-font-specification:'Lato Light';stroke-width:0.26458332"
   id="tspan833-8">M Y</tspan>   <tspan
   style="font-style:normal;font-variant:normal;font-weight:600;font-stretch:normal;font-size:8.46666622px;font-family:Lato;-inkscape-font-specification:'Lato Semi-Bold';stroke-width:0.26458332"
   id="tspan831-9">B E R M U D E S</tspan></tspan></text>
    <text
       xml:space="preserve"
       style="font-style:normal;font-weight:normal;font-size:18.58597755px;line-height:1.25;font-family:sans-serif;letter-spacing:0px;word-spacing:2.247787px;fill:#000000;fill-opacity:1;stroke:none;stroke-width:0.26458332"
       x="136.53714"
       y="148.03473"
       id="text817-0"
       transform="scale(0.82322393,1.2147363)"
       inkscape:export-xdpi="47"
       inkscape:export-ydpi="47"><tspan
         sodipodi:role="line"
         id="tspan815-1"
         x="136.53714"
         y="148.03473"
         style="font-style:normal;font-variant:normal;font-weight:normal;font-stretch:normal;font-size:8.46666622px;font-family:Lato;-inkscape-font-specification:'Lato, Normal';font-variant-ligatures:normal;font-variant-caps:normal;font-variant-numeric:normal;font-feature-settings:normal;text-align:start;word-spacing:2.247787px;writing-mode:lr-tb;text-anchor:start;fill:#ffffff;stroke-width:0.26458332"><tspan
   style="font-style:normal;font-variant:normal;font-weight:300;font-stretch:normal;font-size:8.46666622px;font-family:Lato;-inkscape-font-specification:'Lato Light';fill:#ffffff;stroke-width:0.26458332"
   id="tspan833-3">M Y</tspan>   <tspan
   style="font-style:normal;font-variant:normal;font-weight:600;font-stretch:normal;font-size:8.46666622px;font-family:Lato;-inkscape-font-specification:'Lato Semi-Bold';fill:#ffffff;stroke-width:0.26458332"
   id="tspan831-4">B E R M U D E S</tspan></tspan></text>
    <text
       transform="scale(0.94977305,1.0528831)"
       id="text954"
       y="107.36132"
       x="13.13957"
       style="font-style:normal;font-weight:normal;font-size:8.0414114px;line-height:1.25;font-family:sans-serif;text-align:center;letter-spacing:0px;word-spacing:0px;text-anchor:middle;fill:#000000;fill-opacity:1;stroke:none;stroke-width:0.26458332"
       xml:space="preserve"><tspan
         style="font-style:normal;font-variant:normal;font-weight:normal;font-stretch:normal;font-size:4.23333311px;font-family:sans-serif;-inkscape-font-specification:sans-serif;text-align:center;text-anchor:middle;stroke-width:0.26458332"
         y="107.36132"
         x="13.139569"
         id="tspan952"
         sodipodi:role="line">#171717</tspan></text>
    <text
       xml:space="preserve"
       style="font-style:normal;font-weight:normal;font-size:8.0414114px;line-height:1.25;font-family:sans-serif;text-align:center;letter-spacing:0px;word-spacing:0px;text-anchor:middle;fill:#000000;fill-opacity:1;stroke:none;stroke-width:0.26458332"
       x="18.313114"
       y="115.79766"
       id="text958"
       transform="scale(0.94977305,1.0528831)"><tspan
         sodipodi:role="line"
         id="tspan956"
         x="18.313114"
         y="115.79766"
         style="font-style:normal;font-variant:normal;font-weight:normal;font-stretch:normal;font-size:4.23333311px;font-family:sans-serif;-inkscape-font-specification:sans-serif;text-align:center;text-anchor:middle;stroke-width:0.26458332">23/23/23/255</tspan></text>
    <text
       transform="scale(0.94977305,1.0528831)"
       id="text962"
       y="124.23399"
       x="17.755964"
       style="font-style:normal;font-weight:normal;font-size:8.0414114px;line-height:1.25;font-family:sans-serif;text-align:center;letter-spacing:0px;word-spacing:0px;text-anchor:middle;fill:#000000;fill-opacity:1;stroke:none;stroke-width:0.26458332"
       xml:space="preserve"><tspan
         style="font-style:normal;font-variant:normal;font-weight:normal;font-stretch:normal;font-size:4.23333311px;font-family:sans-serif;-inkscape-font-specification:sans-serif;text-align:center;text-anchor:middle;stroke-width:0.26458332"
         y="124.23399"
         x="18.343008"
         id="tspan960"
         sodipodi:role="line">0/0/0/91/100 </tspan></text>
    <text
       xml:space="preserve"
       style="font-style:normal;font-weight:normal;font-size:8.0414114px;line-height:1.25;font-family:sans-serif;text-align:center;letter-spacing:0px;word-spacing:0px;text-anchor:middle;fill:#000000;fill-opacity:1;stroke:none;stroke-width:0.26458332"
       x="53.811569"
       y="107.36132"
       id="text966"
       transform="scale(0.94977305,1.0528831)"><tspan
         sodipodi:role="line"
         id="tspan964"
         x="53.811569"
         y="107.36132"
         style="font-style:normal;font-variant:normal;font-weight:normal;font-stretch:normal;font-size:4.23333311px;font-family:sans-serif;-inkscape-font-specification:sans-serif;text-align:center;text-anchor:middle;stroke-width:0.26458332">#F9F9F9</tspan></text>
    <text
       transform="scale(0.94977305,1.0528831)"
       id="text970"
       y="115.79766"
       x="63.442322"
       style="font-style:normal;font-weight:normal;font-size:8.0414114px;line-height:1.25;font-family:sans-serif;text-align:center;letter-spacing:0px;word-spacing:0px;text-anchor:middle;fill:#000000;fill-opacity:1;stroke:none;stroke-width:0.26458332"
       xml:space="preserve"><tspan
         style="font-style:normal;font-variant:normal;font-weight:normal;font-stretch:normal;font-size:4.23333311px;font-family:sans-serif;-inkscape-font-specification:sans-serif;text-align:center;text-anchor:middle;stroke-width:0.26458332"
         y="115.79766"
         x="63.442322"
         id="tspan968"
         sodipodi:role="line">259/249/249/255</tspan></text>
    <text
       xml:space="preserve"
       style="font-style:normal;font-weight:normal;font-size:8.0414114px;line-height:1.25;font-family:sans-serif;text-align:center;letter-spacing:0px;word-spacing:0px;text-anchor:middle;fill:#000000;fill-opacity:1;stroke:none;stroke-width:0.26458332"
       x="57.313656"
       y="124.23399"
       id="text974"
       transform="scale(0.94977305,1.0528831)"><tspan
         sodipodi:role="line"
         id="tspan972"
         x="57.9007"
         y="124.23399"
         style="font-style:normal;font-variant:normal;font-weight:normal;font-stretch:normal;font-size:4.23333311px;font-family:sans-serif;-inkscape-font-specification:sans-serif;text-align:center;text-anchor:middle;stroke-width:0.26458332">0/0/0/2/100 </tspan></text>
    <text
       transform="scale(0.94977305,1.0528831)"
       id="text978"
       y="107.36132"
       x="95.597954"
       style="font-style:normal;font-weight:normal;font-size:8.0414114px;line-height:1.25;font-family:sans-serif;text-align:center;letter-spacing:0px;word-spacing:0px;text-anchor:middle;fill:#000000;fill-opacity:1;stroke:none;stroke-width:0.26458332"
       xml:space="preserve"><tspan
         style="font-style:normal;font-variant:normal;font-weight:normal;font-stretch:normal;font-size:4.23333311px;font-family:sans-serif;-inkscape-font-specification:sans-serif;text-align:center;text-anchor:middle;stroke-width:0.26458332"
         y="107.36132"
         x="95.597954"
         id="tspan976"
         sodipodi:role="line">#FFFFFF</tspan></text>
    <text
       xml:space="preserve"
       style="font-style:normal;font-weight:normal;font-size:8.0414114px;line-height:1.25;font-family:sans-serif;text-align:center;letter-spacing:0px;word-spacing:0px;text-anchor:middle;fill:#000000;fill-opacity:1;stroke:none;stroke-width:0.26458332"
       x="105.78586"
       y="115.79766"
       id="text982"
       transform="scale(0.94977305,1.0528831)"><tspan
         sodipodi:role="line"
         id="tspan980"
         x="105.78586"
         y="115.79766"
         style="font-style:normal;font-variant:normal;font-weight:normal;font-stretch:normal;font-size:4.23333311px;font-family:sans-serif;-inkscape-font-specification:sans-serif;text-align:center;text-anchor:middle;stroke-width:0.26458332">255/255/255/255</tspan></text>
    <text
       transform="scale(0.94977305,1.0528831)"
       id="text986"
       y="124.23399"
       x="99.100037"
       style="font-style:normal;font-weight:normal;font-size:8.0414114px;line-height:1.25;font-family:sans-serif;text-align:center;letter-spacing:0px;word-spacing:0px;text-anchor:middle;fill:#000000;fill-opacity:1;stroke:none;stroke-width:0.26458332"
       xml:space="preserve"><tspan
         style="font-style:normal;font-variant:normal;font-weight:normal;font-stretch:normal;font-size:4.23333311px;font-family:sans-serif;-inkscape-font-specification:sans-serif;text-align:center;text-anchor:middle;stroke-width:0.26458332"
         y="124.23399"
         x="99.68708"
         id="tspan984"
         sodipodi:role="line">0/0/0/0/100 </tspan></text>
    <rect
       style="opacity:0.98999999;fill:#f9ca24;fill-opacity:1;stroke:#ff0001;stroke-width:5.29166698;stroke-linecap:round;stroke-linejoin:miter;stroke-miterlimit:4;stroke-dasharray:none;stroke-opacity:0;paint-order:normal"
       id="rect3765"
       width="103.95148"
       height="78.616379"
       x="105.71857"
       y="216.94943"
       transform="matrix(0.99999912,0.00132427,-0.00101571,0.99999948,0,0)" />
    <text
       inkscape:export-ydpi="47"
       inkscape:export-xdpi="47"
       transform="scale(0.82322393,1.2147363)"
       id="text3773"
       y="212.50696"
       x="136.53714"
       style="font-style:normal;font-weight:normal;font-size:18.58597755px;line-height:1.25;font-family:sans-serif;letter-spacing:0px;word-spacing:2.247787px;fill:#000000;fill-opacity:1;stroke:none;stroke-width:0.26458332"
       xml:space="preserve"><tspan
         style="font-style:normal;font-variant:normal;font-weight:normal;font-stretch:normal;font-size:8.46666622px;font-family:Lato;-inkscape-font-specification:'Lato, Normal';font-variant-ligatures:normal;font-variant-caps:normal;font-variant-numeric:normal;font-feature-settings:normal;text-align:start;word-spacing:2.247787px;writing-mode:lr-tb;text-anchor:start;fill:#000000;fill-opacity:1;stroke-width:0.26458332"
         y="212.50696"
         x="136.53714"
         id="tspan3771"
         sodipodi:role="line"><tspan
   id="tspan3767"
   style="font-style:normal;font-variant:normal;font-weight:300;font-stretch:normal;font-size:8.46666622px;font-family:Lato;-inkscape-font-specification:'Lato Light';fill:#000000;fill-opacity:1;stroke-width:0.26458332">M Y</tspan>   <tspan
   id="tspan3769"
   style="font-style:normal;font-variant:normal;font-weight:600;font-stretch:normal;font-size:8.46666622px;font-family:Lato;-inkscape-font-specification:'Lato Semi-Bold';fill:#000000;fill-opacity:1;stroke-width:0.26458332">B E R M U D E S</tspan></tspan></text>
    <rect
       style="opacity:0.98999999;fill:#f9ca24;fill-opacity:1;stroke:#ff0001;stroke-width:5.29166651;stroke-linecap:round;stroke-linejoin:miter;stroke-miterlimit:4;stroke-dasharray:none;stroke-opacity:0;paint-order:normal"
       id="rect4580"
       width="28.090399"
       height="26.269344"
       x="125.29787"
       y="79.210144" />
    <path
       style="font-style:normal;font-weight:normal;font-size:8.0414114px;line-height:1.25;font-family:sans-serif;text-align:center;letter-spacing:0px;word-spacing:0px;text-anchor:middle;fill:#000000;fill-opacity:1;stroke:none;stroke-width:0.99999994"
       d="M 496.25586 415.4707 C 495.16263 415.4707 494.30871 415.81921 493.69531 416.51562 C 493.08192 417.20658 492.77539 418.15723 492.77539 419.36914 C 492.77539 420.54815 493.05717 421.49414 493.62109 422.20703 C 494.18502 422.91992 494.93707 423.27734 495.87695 423.27734 C 496.45077 423.27734 496.9772 423.12815 497.45703 422.83203 C 497.93686 422.53042 498.27674 422.13416 498.47461 421.64062 C 498.45482 423.10479 498.23493 424.23182 497.81445 425.02148 C 497.39398 425.81115 496.79995 426.20508 496.0332 426.20508 C 495.123 426.20508 494.5347 425.72296 494.26758 424.75781 L 492.99023 424.98047 C 493.20294 425.83045 493.5552 426.44621 494.04492 426.83008 C 494.5396 427.20846 495.19355 427.39844 496.00977 427.39844 C 497.22172 427.39844 498.15562 426.86426 498.80859 425.79492 C 499.46651 424.72559 499.79492 423.19569 499.79492 421.20508 C 499.79492 419.29124 499.49504 417.85652 498.89648 416.90234 C 498.29793 415.94817 497.41834 415.4707 496.25586 415.4707 z M 514.00391 415.4707 C 512.91068 415.4707 512.05675 415.81921 511.44336 416.51562 C 510.82996 417.20658 510.52344 418.15723 510.52344 419.36914 C 510.52344 420.54815 510.80717 421.49414 511.37109 422.20703 C 511.93502 422.91992 512.68512 423.27734 513.625 423.27734 C 514.19882 423.27734 514.7272 423.12815 515.20703 422.83203 C 515.68686 422.53042 516.02479 422.13416 516.22266 421.64062 C 516.20287 423.10479 515.98297 424.23182 515.5625 425.02148 C 515.14203 425.81115 514.54799 426.20508 513.78125 426.20508 C 512.87105 426.20508 512.28275 425.72296 512.01562 424.75781 L 510.74023 424.98047 C 510.95294 425.83045 511.30324 426.44621 511.79297 426.83008 C 512.28764 427.20846 512.94355 427.39844 513.75977 427.39844 C 514.97172 427.39844 515.90367 426.86426 516.55664 425.79492 C 517.21456 424.72559 517.54297 423.19569 517.54297 421.20508 C 517.54297 419.29124 517.24504 417.85652 516.64648 416.90234 C 516.04793 415.94817 515.16639 415.4707 514.00391 415.4707 z M 531.75391 415.4707 C 530.66068 415.4707 529.80675 415.81921 529.19336 416.51562 C 528.57996 417.20658 528.27344 418.15723 528.27344 419.36914 C 528.27344 420.54815 528.55521 421.49414 529.11914 422.20703 C 529.68307 422.91992 530.43512 423.27734 531.375 423.27734 C 531.94882 423.27734 532.47524 423.12815 532.95508 422.83203 C 533.43491 422.53042 533.77479 422.13416 533.97266 421.64062 C 533.95287 423.10479 533.73102 424.23182 533.31055 425.02148 C 532.89007 425.81115 532.29799 426.20508 531.53125 426.20508 C 530.62105 426.20508 530.0308 425.72296 529.76367 424.75781 L 528.48828 424.98047 C 528.70099 425.83045 529.05129 426.44621 529.54102 426.83008 C 530.03569 427.20846 530.6916 427.39844 531.50781 427.39844 C 532.71976 427.39844 533.65172 426.86426 534.30469 425.79492 C 534.9626 424.72559 535.29297 423.19569 535.29297 421.20508 C 535.29297 419.29124 534.99309 417.85652 534.39453 416.90234 C 533.79598 415.94817 532.91639 415.4707 531.75391 415.4707 z M 484.01953 415.64453 L 484.01953 427.23438 L 485.4375 427.23438 L 485.4375 422.53711 L 491.26953 422.53711 L 491.26953 421.23633 L 485.4375 421.23633 L 485.4375 416.92773 L 491.44727 416.92773 L 491.44727 415.64453 L 484.01953 415.64453 z M 501.76758 415.64453 L 501.76758 427.23438 L 503.18555 427.23438 L 503.18555 422.53711 L 509.01758 422.53711 L 509.01758 421.23633 L 503.18555 421.23633 L 503.18555 416.92773 L 509.19531 416.92773 L 509.19531 415.64453 L 501.76758 415.64453 z M 519.51758 415.64453 L 519.51758 427.23438 L 520.93555 427.23438 L 520.93555 422.53711 L 526.76758 422.53711 L 526.76758 421.23633 L 520.93555 421.23633 L 520.93555 416.92773 L 526.94531 416.92773 L 526.94531 415.64453 L 519.51758 415.64453 z M 477.45312 415.70898 L 476.79297 419.06641 L 474.75977 419.06641 L 474.75977 419.95312 L 476.62891 419.95312 L 476.05078 422.99023 L 474.38086 422.99023 L 474.38086 423.87695 L 475.87305 423.87695 L 475.25 427.23438 L 476.06445 427.23438 L 476.68945 423.87695 L 479.38281 423.87695 L 478.74414 427.23438 L 479.56055 427.23438 L 480.21289 423.87695 L 482.3125 423.87695 L 482.3125 422.99023 L 480.38281 422.99023 L 480.96289 419.95312 L 482.69141 419.95312 L 482.69141 419.06641 L 481.125 419.06641 L 481.7793 415.70898 L 480.96289 415.70898 L 480.31055 419.06641 L 477.61523 419.06641 L 478.26953 415.70898 L 477.45312 415.70898 z M 496.21094 416.67188 C 496.85896 416.67187 497.37587 416.95703 497.76172 417.52734 C 498.14756 418.09217 498.33984 418.8412 498.33984 419.77344 C 498.33984 420.22859 498.2437 420.63379 498.05078 420.99023 C 497.86281 421.34668 497.60292 421.6229 497.27148 421.82031 C 496.94005 422.01224 496.58116 422.10938 496.19531 422.10938 C 495.56213 422.10937 495.06046 421.86501 494.68945 421.37695 C 494.31845 420.88341 494.13281 420.21364 494.13281 419.36914 C 494.13281 418.54109 494.31845 417.88687 494.68945 417.4043 C 495.06046 416.91624 495.56786 416.67188 496.21094 416.67188 z M 513.95898 416.67188 C 514.60701 416.67187 515.12392 416.95703 515.50977 417.52734 C 515.89561 418.09217 516.08984 418.8412 516.08984 419.77344 C 516.08984 420.22859 515.9937 420.63379 515.80078 420.99023 C 515.61281 421.34668 515.35292 421.6229 515.02148 421.82031 C 514.69005 422.01224 514.33116 422.10938 513.94531 422.10938 C 513.31213 422.10937 512.81046 421.86501 512.43945 421.37695 C 512.06845 420.88341 511.88281 420.21364 511.88281 419.36914 C 511.88281 418.54109 512.06845 417.88687 512.43945 417.4043 C 512.81046 416.91624 513.31591 416.67188 513.95898 416.67188 z M 531.70898 416.67188 C 532.35701 416.67187 532.87392 416.95703 533.25977 417.52734 C 533.64561 418.09217 533.83789 418.8412 533.83789 419.77344 C 533.83789 420.22859 533.74175 420.63379 533.54883 420.99023 C 533.36085 421.34668 533.10096 421.6229 532.76953 421.82031 C 532.4381 422.01224 532.0792 422.10938 531.69336 422.10938 C 531.06018 422.10937 530.55851 421.86501 530.1875 421.37695 C 529.81649 420.88341 529.63086 420.21364 529.63086 419.36914 C 529.63086 418.54109 529.81649 417.88687 530.1875 417.4043 C 530.55851 416.91624 531.06591 416.67188 531.70898 416.67188 z M 477.4668 419.95312 L 480.13867 419.95312 L 479.56055 422.99023 L 476.875 422.99023 L 477.4668 419.95312 z "
       transform="scale(0.26458333)"
       id="text4584" />
    <text
       xml:space="preserve"
       style="font-style:normal;font-weight:normal;font-size:8.0414114px;line-height:1.25;font-family:sans-serif;text-align:center;letter-spacing:0px;word-spacing:0px;text-anchor:middle;fill:#000000;fill-opacity:1;stroke:none;stroke-width:0.26458332"
       x="150.35765"
       y="115.79766"
       id="text4588"
       transform="scale(0.94977305,1.0528831)"><tspan
         sodipodi:role="line"
         id="tspan4586"
         x="150.35765"
         y="115.79766"
         style="font-style:normal;font-variant:normal;font-weight:normal;font-stretch:normal;font-size:4.23333311px;font-family:sans-serif;-inkscape-font-specification:sans-serif;text-align:center;text-anchor:middle;stroke-width:0.26458332">259/249/249/255</tspan></text>
    <text
       transform="scale(0.94977305,1.0528831)"
       id="text4592"
       y="124.23399"
       x="144.22906"
       style="font-style:normal;font-weight:normal;font-size:8.0414114px;line-height:1.25;font-family:sans-serif;text-align:center;letter-spacing:0px;word-spacing:0px;text-anchor:middle;fill:#000000;fill-opacity:1;stroke:none;stroke-width:0.26458332"
       xml:space="preserve"><tspan
         style="font-style:normal;font-variant:normal;font-weight:normal;font-stretch:normal;font-size:4.23333311px;font-family:sans-serif;-inkscape-font-specification:sans-serif;text-align:center;text-anchor:middle;stroke-width:0.26458332"
         y="124.23399"
         x="144.81612"
         id="tspan4590"
         sodipodi:role="line">0/0/0/2/100 </tspan></text>
  </g>
</svg>
