<?xml version="1.0" encoding="UTF-8" standalone="no"?><!-- Generator: Gravit.io --><svg xmlns="http://www.w3.org/2000/svg" xmlns:xlink="http://www.w3.org/1999/xlink" style="isolation:isolate" viewBox="0 0 595.276 841.89" width="595.276pt" height="841.89pt"><defs><clipPath id="_clipPath_FmqfEPbCThairLcSqiGvnyhlWRsoREuR"><rect width="595.276" height="841.89"/></clipPath></defs><g clip-path="url(#_clipPath_FmqfEPbCThairLcSqiGvnyhlWRsoREuR)"><g opacity="0.75"><rect x="181.111" y="214.06" width="114.822" height="75.836" transform="matrix(1,0,0,1,0,0)" fill="rgb(23,23,23)" vector-effect="non-scaling-stroke" stroke-width="0.75" stroke="rgb(0,0,0)" stroke-linejoin="miter" stroke-linecap="round" stroke-miterlimit="2"/></g><g opacity="0.5"><rect x="296.452" y="214.06" width="114.822" height="75.836" transform="matrix(1,0,0,1,0,0)" fill="rgb(23,23,23)" vector-effect="non-scaling-stroke" stroke-width="0.75" stroke="rgb(0,0,0)" stroke-linejoin="miter" stroke-linecap="round" stroke-miterlimit="2"/></g><rect x="65.413" y="214.06" width="114.822" height="75.836" transform="matrix(1,0,0,1,0,0)" fill="rgb(23,23,23)" vector-effect="non-scaling-stroke" stroke-width="0.75" stroke="rgb(0,0,0)" stroke-linejoin="miter" stroke-linecap="round" stroke-miterlimit="2"/><rect x="64.241" y="334.681" width="116.569" height="81.316" transform="matrix(1,0,0,1,0,0)" fill="rgb(249,249,249)"/><rect x="64.241" y="463.681" width="116.569" height="81.316" transform="matrix(1,0,0,1,0,0)" fill="rgb(246,201,47)"/><g opacity="0.75"><rect x="180.149" y="334.681" width="116.569" height="81.316" transform="matrix(1,0,0,1,0,0)" fill="rgb(249,249,249)"/></g><g opacity="0.75"><rect x="180.149" y="463.681" width="116.569" height="81.316" transform="matrix(1,0,0,1,0,0)" fill="rgb(249,202,36)"/></g><g opacity="0.5"><rect x="296.057" y="334.681" width="116.569" height="81.316" transform="matrix(1,0,0,1,0,0)" fill="rgb(249,249,249)"/></g><g opacity="0.5"><rect x="296.057" y="463.681" width="116.569" height="81.316" transform="matrix(1,0,0,1,0,0)" fill="rgb(249,202,36)"/></g><text transform="matrix(2.692,0,0,2.985,439.856,225.306)" style="font-family:'Open Sans';font-weight:400;font-size:4.2px;font-style:normal;font-variant-ligatures:none;fill:#000000;stroke:none;">#171717</text><text transform="matrix(2.692,0,0,2.985,441.511,250.485)" style="font-family:'Open Sans';font-weight:400;font-size:4.2px;font-style:normal;font-variant-ligatures:none;fill:#000000;stroke:none;">23/23/23/255</text><text transform="matrix(2.692,0,0,2.985,441.513,275.663)" style="font-family:'Open Sans';font-weight:400;font-size:4.2px;font-style:normal;font-variant-ligatures:none;fill:#000000;stroke:none;">0/0/0/91/100 </text><g opacity="0.5"><mask id="_mask_sCm6eGZiY1Xx5xx4mzetZbGUQP5KHbOG" x="-200%" y="-200%" width="400%" height="400%"><rect x="-200%" y="-200%" width="400%" height="400%" style="fill:white;"/><path d=" M 295.47 168.886 C 295.47 594.083 295.47 594.083 295.47 594.083 L 295.47 594.083" fill="black" stroke="none"/></mask><path d=" M 295.47 168.886 C 295.47 594.083 295.47 594.083 295.47 594.083 L 295.47 594.083" fill="none" mask="url(#_mask_sCm6eGZiY1Xx5xx4mzetZbGUQP5KHbOG)" vector-effect="non-scaling-stroke" stroke-width="1.5" stroke="rgb(0,0,0)" stroke-linejoin="miter" stroke-linecap="butt" stroke-miterlimit="4"/><path d=" M 295.47 168.886 C 295.47 594.083 295.47 594.083 295.47 594.083 L 295.47 594.083" fill="none"/></g><g opacity="0.5"><mask id="_mask_fzZ924ZnZKenyLZfXiTdAHfsgvsbPbsw" x="-200%" y="-200%" width="400%" height="400%"><rect x="-200%" y="-200%" width="400%" height="400%" style="fill:white;"/><path d=" M 181.085 167.128 C 181.085 592.325 181.085 592.325 181.085 592.325 L 181.085 592.325" fill="black" stroke="none"/></mask><path d=" M 181.085 167.128 C 181.085 592.325 181.085 592.325 181.085 592.325 L 181.085 592.325" fill="none" mask="url(#_mask_fzZ924ZnZKenyLZfXiTdAHfsgvsbPbsw)" vector-effect="non-scaling-stroke" stroke-width="1.5" stroke="rgb(0,0,0)" stroke-linejoin="miter" stroke-linecap="butt" stroke-miterlimit="4"/><path d=" M 181.085 167.128 C 181.085 592.325 181.085 592.325 181.085 592.325 L 181.085 592.325" fill="none"/></g><text transform="matrix(2.692,0,0,2.985,342.318,184.806)" style="font-family:'Open Sans';font-weight:400;font-size:4.2px;font-style:normal;font-variant-ligatures:none;fill:#000000;stroke:none;">50 %</text><text transform="matrix(2.692,0,0,2.985,223.585,184.806)" style="font-family:'Open Sans';font-weight:400;font-size:4.2px;font-style:normal;font-variant-ligatures:none;fill:#000000;stroke:none;">100 %</text><text transform="matrix(2.692,0,0,2.985,440.614,342.532)" style="font-family:'Open Sans';font-weight:400;font-size:4.2px;font-style:normal;font-variant-ligatures:none;fill:#000000;stroke:none;">#F9F9F9</text><text transform="matrix(2.692,0,0,2.985,440.614,472.532)" style="font-family:'Open Sans';font-weight:400;font-size:4.2px;font-style:normal;font-variant-ligatures:none;fill:[Object GRGBColor];stroke:none;">#F9CA24</text><text transform="matrix(2.692,0,0,2.985,443.626,367.711)" style="font-family:'Open Sans';font-weight:400;font-size:4.2px;font-style:normal;font-variant-ligatures:none;fill:#000000;stroke:none;">259/249/249/255</text><text transform="matrix(2.692,0,0,2.985,443.626,497.711)" style="font-family:'Open Sans';font-weight:400;font-size:4.2px;font-style:normal;font-variant-ligatures:none;fill:[Object GRGBColor];stroke:none;">249/202/36/255</text><text transform="matrix(2.692,0,0,2.985,441.559,392.889)" style="font-family:'Open Sans';font-weight:400;font-size:4.2px;font-style:normal;font-variant-ligatures:none;fill:#000000;stroke:none;">0/0/0/2/100 </text><text transform="matrix(2.692,0,0,2.985,441.559,522.889)" style="font-family:'Open Sans';font-weight:400;font-size:4.2px;font-style:normal;font-variant-ligatures:none;fill:[Object GRGBColor];stroke:none;">3/20/100/0/100 </text><text transform="matrix(2.692,0,0,2.985,120.168,22.409)" style="font-family:'Open Sans';font-weight:400;font-size:8px;font-style:normal;font-variant-ligatures:none;fill:#000000;stroke:none;">MY BERMUDES - Guide des couleurs</text></g></svg>